<?xml version="1.0" standalone="no"?>
<!DOCTYPE svg PUBLIC "-//W3C//DTD SVG 20010904//EN"
 "http://www.w3.org/TR/2001/REC-SVG-20010904/DTD/svg10.dtd">
<svg version="1.0" xmlns="http://www.w3.org/2000/svg"
 width="512.000000pt" height="512.000000pt" viewBox="0 0 512.000000 512.000000"
 preserveAspectRatio="xMidYMid meet">

<g transform="translate(0.000000,512.000000) scale(0.100000,-0.100000)"
fill="#000000" stroke="none">
<path d="M3114 4860 c71 -115 129 -266 150 -393 14 -81 3 -77 124 -54 l62 12
-44 90 c-66 136 -160 257 -270 348 l-50 42 28 -45z"/>
<path d="M4091 4225 c2 -6 25 -53 51 -105 74 -150 93 -235 93 -420 0 -131 -4
-168 -23 -239 -93 -339 -345 -593 -687 -693 l-80 -23 -1202 -3 c-1333 -3
-1278 -5 -1421 63 l-73 34 33 -45 c104 -145 286 -254 475 -283 96 -15 2263
-15 2382 -1 210 27 405 123 557 274 360 361 376 933 35 1318 -43 48 -147 140
-140 123z"/>
</g>
</svg>
